<svg xmlns="http://www.w3.org/2000/svg"
     viewBox="0 0 320 480">
    <path class="head score{{model.head()}}" ng-class="{active:model.active=='head'}"
          d=" m160.40741,0c-21.817886,0 -38.40741,19.656494 -38.40741,49.90567c0,21.004333 7.99826,37.944519 20.192123,46.33902l-4.066666,21.69809c22.592606,4.32489 22.592606,4.32489 45.185196,0l-4.659729,-21.711639c12.179611,-8.400543 20.163895,-25.335693 20.163895,-46.32547c0,-30.249176 -16.589539,-49.90567 -38.40741,-49.90567z" />
    <path class="trunk score{{model.trunk()}}" ng-class="{active:model.active=='trunk'}"
          d="m124.569908,117.94281c-18.074081,39.05661 -9.347687,94.69873 -18.38472,138.09494c42.925926,8.67926 40.666664,39.056641 54.222221,39.056641c13.555557,0 11.296295,-30.37738 51.962967,-39.056641c-9.778091,-38.212799 0.18898,-101.67392 -15.504166,-138.09494c-36.148148,8.67926 -38.220367,9.038574 -72.296303,0z" />
    <path class="arms arm-left score{{model.arms()}}" ng-class="{active:model.active=='arms'}"
          d="m120.051376,117.94281c-24.437805,9.346466 -71.495327,85.836761 -99.718056,129.415741c-1.06744,2.835388 -2.998461,3.085327 -4.65972,4.70575c-8.47927,8.972351 -13.82124,20.639893 -15.67361,32.18103c4.86641,10.986023 13.74859,14.605042 29.229161,12.73407c-1.382481,-9.034668 1.536669,-16.571777 5.266901,-23.542419c1.49025,6.775818 5.167198,15.147949 8.429859,15.147949c4.51852,0 6.777779,-4.3396 4.51852,-10.84906c-2.259262,-6.509399 -2.259262,-8.67926 -6.777782,-15.18866c-0.969467,-1.666016 -2.958149,-3.869019 -5.450459,-5.96698l46.11713,-56.95755c4.207047,-9.646179 11.606949,-12.24585 25.162498,-29.604401c4.518524,-21.69812 4.518524,-34.71698 13.55555,-52.07547l0.000008,0z" />
    <path class="arms arm-right score{{model.arms()}}" ng-class="{active:model.active=='arms'}"
          d="m200.622223,117.50885c24.437805,9.346466 71.495331,85.836761 99.718079,129.41568c1.067413,2.835449 2.998444,3.085388 4.659698,4.705811c8.479279,8.972351 13.821259,20.639893 15.673645,32.18103c-4.866425,10.986023 -13.748627,14.605042 -29.229187,12.73407c1.382477,-9.034668 -1.536652,-16.571777 -5.266907,-23.542419c-1.490234,6.775818 -5.167206,15.147949 -8.42984,15.147949c-4.518524,0 -6.777802,-4.3396 -4.518524,-10.84906c2.259247,-6.50946 2.259247,-8.67926 6.777771,-15.18866c0.969482,-1.666016 2.95816,-3.86908 5.45047,-5.96698l-46.117142,-56.957581c-4.207047,-9.646149 -11.606934,-12.245819 -25.162491,-29.60437c-4.518524,-21.69812 -4.518524,-34.71698 -13.555573,-52.07547z" />
    <path class="legs leg-left score{{model.legs()}}" ng-class="{active:model.active=='legs'}"
          d="m106.185188,260.37735l-2.259262,104.15094l9.037033,91.13208c-13.55555,8.67926 -47.133789,9.452209 -42.61528,22.471069c27.111115,4.339661 40.168121,1.683472 54.222229,0c18.074074,0.000061 15.504173,-9.452209 10.985649,-18.13147c0.001007,-28.930969 9.037033,-60.754639 4.518524,-91.132019l15.814804,-69.43396c-18.074066,-17.358521 -22.59259,-34.71698 -49.703697,-39.056641z" />
    <path class="legs leg-right score{{model.legs()}}" ng-class="{active:model.active=='legs'}"
          d="m212.370377,260.37735c-27.111099,4.339661 -31.629623,21.69812 -47.444443,39.056641l15.814819,69.43396c-4.518524,30.37738 4.517242,62.20105 4.518524,91.132019c-4.518524,8.67926 -5.153931,18.565491 12.920135,18.56543c14.054108,1.683472 27.111115,4.339722 54.222214,0c4.518509,-13.01886 -30.994202,-14.225769 -44.549759,-22.905029l9.037033,-91.13208l-4.518524,-104.15094z" />
</svg>