<?xml version="1.0" encoding="UTF-8" standalone="no"?>
<!-- Created with Inkscape (http://www.inkscape.org/) -->

<svg
   xmlns:dc="http://purl.org/dc/elements/1.1/"
   xmlns:cc="http://creativecommons.org/ns#"
   xmlns:rdf="http://www.w3.org/1999/02/22-rdf-syntax-ns#"
   xmlns:svg="http://www.w3.org/2000/svg"
   xmlns="http://www.w3.org/2000/svg"
   xmlns:sodipodi="http://sodipodi.sourceforge.net/DTD/sodipodi-0.dtd"
   xmlns:inkscape="http://www.inkscape.org/namespaces/inkscape"
   width="320"
   height="480"
   id="svg2"
   version="1.1"
   inkscape:version="0.48.5 r10040"
   sodipodi:docname="eric.svg">
  <defs
     id="defs4" />
  <sodipodi:namedview
     id="base"
     pagecolor="#ffffff"
     bordercolor="#666666"
     borderopacity="1.0"
     inkscape:pageopacity="0.0"
     inkscape:pageshadow="2"
     inkscape:zoom="1.775"
     inkscape:cx="160"
     inkscape:cy="240"
     inkscape:document-units="px"
     inkscape:current-layer="g4024"
     showgrid="true"
     showguides="false"
     inkscape:window-width="1920"
     inkscape:window-height="1017"
     inkscape:window-x="-8"
     inkscape:window-y="-8"
     inkscape:window-maximized="1"
     objecttolerance="10000">
    <inkscape:grid
       type="xygrid"
       id="grid3018"
       empspacing="5"
       visible="true"
       enabled="true"
       snapvisiblegridlinesonly="true" />
  </sodipodi:namedview>
  <metadata
     id="metadata7">
    <rdf:RDF>
      <cc:Work
         rdf:about="">
        <dc:format>image/svg+xml</dc:format>
        <dc:type
           rdf:resource="http://purl.org/dc/dcmitype/StillImage" />
        <dc:title />
      </cc:Work>
    </rdf:RDF>
  </metadata>
  <g
     inkscape:label="Layer 1"
     inkscape:groupmode="layer"
     id="layer1"
     transform="translate(0,-572.3622)">
    <g
       id="g4024"
       transform="translate(0,301.52037)">
      <path
         sodipodi:nodetypes="cccccc"
         inkscape:connector-curvature="0"
         id="rect3020"
         d="m 124.56991,388.78463 c -18.07408,39.05661 -9.34769,94.69873 -18.38472,138.09495 42.92592,8.67925 40.66666,39.05661 54.22222,39.05661 13.55555,0 11.2963,-30.37736 51.96296,-39.05661 -9.77808,-38.2128 0.18898,-101.67393 -15.50416,-138.09495 -36.14815,8.67925 -38.22036,9.03857 -72.2963,0 z"
         style="color:#000000;fill:#000000;fill-opacity:1;stroke:none;stroke-width:6;marker:none;visibility:visible;display:inline;overflow:visible;enable-background:accumulate" />
      <path
         inkscape:connector-curvature="0"
         style="color:#000000;fill:#000000;fill-opacity:1;fill-rule:nonzero;stroke:none;stroke-width:6;marker:none;visibility:visible;display:inline;overflow:visible;enable-background:accumulate"
         d="m 106.18519,531.21919 -2.25926,104.15095 9.03703,91.13207 c -13.555552,8.67925 -47.133793,9.45222 -42.615275,22.47109 27.111112,4.33966 40.168115,1.68347 54.222225,0 18.07407,4e-5 15.50417,-9.45222 10.98565,-18.13147 0.001,-28.931 9.03703,-60.75467 4.51852,-91.13207 l 15.81481,-69.43396 c -18.07407,-17.35849 -22.59259,-34.71698 -49.7037,-39.05661 z"
         id="rect3054" />
      <path
         inkscape:connector-curvature="0"
         style="color:#000000;fill:#000000;fill-opacity:1;fill-rule:nonzero;stroke:none;stroke-width:6;marker:none;visibility:visible;display:inline;overflow:visible;enable-background:accumulate"
         d="m 212.37037,531.21919 c -27.11111,4.33963 -31.62963,21.69812 -47.44444,39.05661 l 15.81481,69.43396 c -4.51852,30.3774 4.51725,62.20107 4.51852,91.13207 -4.51852,8.67925 -5.15393,18.56547 12.92014,18.56543 14.05411,1.68347 27.11111,4.33967 54.22222,0 4.51852,-13.01887 -30.99421,-14.2258 -44.54977,-22.90505 l 9.03704,-91.13207 -4.51852,-104.15095 z"
         id="rect3054-3" />
      <path
         style="color:#000000;fill:#000000;fill-opacity:1;stroke:none;stroke-width:5.422791;marker:none;visibility:visible;display:inline;overflow:visible;enable-background:accumulate"
         d="m 120.05138,388.78463 c -24.437803,9.34647 -71.495328,85.83678 -99.718054,129.41571 -1.067441,2.83542 -2.998461,3.08538 -4.659722,4.7058 -8.4792711,8.97234 -13.8212355,20.63989 -15.6736112,32.18099 4.8664174,10.98606 13.7485912,14.60504 29.2291672,12.7341 -1.382486,-9.03466 1.536662,-16.5718 5.266898,-23.54245 1.490244,6.77584 5.167197,15.14797 8.429861,15.14797 4.518519,0 6.777778,-4.33962 4.518519,-10.84905 -2.259259,-6.50944 -2.259259,-8.67925 -6.777778,-15.18868 -0.969475,-1.66598 -2.958156,-3.86904 -5.450463,-5.96698 l 46.117131,-56.95755 c 4.207052,-9.64616 11.606944,-12.24585 25.162502,-29.60438 4.51852,-21.69812 4.51852,-34.71699 13.55555,-52.07548 z"
         id="rect3020-2-1"
         inkscape:connector-curvature="0"
         sodipodi:nodetypes="ccccccssccccc" />
      <path
         sodipodi:nodetypes="ccccccssccccc"
         inkscape:connector-curvature="0"
         id="rect3020-2-1-5"
         d="m 200.62222,388.35067 c 24.43781,9.34646 71.49534,85.83678 99.71806,129.4157 1.06744,2.83543 2.99846,3.08539 4.65972,4.7058 8.47928,8.97235 13.82124,20.6399 15.67362,32.181 -4.86642,10.98606 -13.7486,14.60504 -29.22917,12.7341 1.38248,-9.03466 -1.53666,-16.5718 -5.2669,-23.54245 -1.49024,6.77584 -5.1672,15.14797 -8.42986,15.14797 -4.51852,0 -6.77778,-4.33962 -4.51852,-10.84906 2.25926,-6.50943 2.25926,-8.67924 6.77778,-15.18868 0.96947,-1.66598 2.95815,-3.86903 5.45046,-5.96698 l -46.11713,-56.95754 c -4.20705,-9.64616 -11.60694,-12.24585 -25.1625,-29.60439 -4.51852,-21.69811 -4.51852,-34.71698 -13.55556,-52.07547 z"
         style="color:#000000;fill:#000000;fill-opacity:1;stroke:none;stroke-width:5.422791;marker:none;visibility:visible;display:inline;overflow:visible;enable-background:accumulate" />
      <path
         inkscape:connector-curvature="0"
         style="color:#000000;fill:#000000;fill-opacity:1;stroke:none;stroke-width:6;marker:none;visibility:visible;display:inline;overflow:visible;enable-background:accumulate"
         d="M 160.40741,270.84184 C 138.58953,270.84184 122,290.49831 122,320.7475 c 0,21.00433 7.99826,37.94451 20.19213,46.33903 l -4.06667,21.69809 c 22.5926,4.32487 22.5926,4.32487 45.18519,0 l -4.65972,-21.71165 c 12.17961,-8.40054 20.16389,-25.3357 20.16389,-46.32547 0,-30.24919 -16.58954,-49.90566 -38.40741,-49.90566 z"
         id="path2985" />
    </g>
  </g>
</svg>
